<svg width="77" height="81" viewBox="0 0 77 81" fill="none" xmlns="http://www.w3.org/2000/svg">
<g clip-path="url(#clip0_24_207)">
<path fill-rule="evenodd" clip-rule="evenodd" d="M26.0647 0.967896C19.0348 0.967896 13.3294 6.90294 13.3294 14.2158C13.3294 21.5286 19.0348 27.4636 26.0647 27.4636C19.0348 27.4636 13.3294 33.3987 13.3294 40.7115C13.3294 48.0243 19.0348 53.9594 26.0647 53.9594C19.0348 53.9594 13.3294 59.8944 13.3294 67.2072C13.3294 74.52 19.0348 80.4551 26.0647 80.4551C33.0945 80.4551 38.7999 74.52 38.7999 67.2072L38.7999 40.7115C38.7999 48.0243 44.5053 53.9594 51.5352 53.9594C58.5651 53.9594 64.2705 48.0243 64.2705 40.7115C64.2705 33.3987 58.5651 27.4636 51.5352 27.4636C58.5651 27.4636 64.2705 21.5286 64.2705 14.2158C64.2705 6.90294 58.5651 0.967896 51.5352 0.967896H26.0647ZM51.5352 27.4636H38.7999L38.7999 40.7115C38.7999 33.3987 44.5053 27.4636 51.5352 27.4636Z" fill="#FBD7DE" fill-opacity="0.8"/>
</g>
<defs>
<clipPath id="clip0_24_207">
<rect width="76.4116" height="79.4872" fill="white" transform="translate(0.494629 0.967896)"/>
</clipPath>
</defs>
</svg>
