<svg width="78" height="81" viewBox="0 0 78 81" fill="none" xmlns="http://www.w3.org/2000/svg">
<path fill-rule="evenodd" clip-rule="evenodd" d="M75.7013 37.1706L42.3382 2.46727C40.4182 0.468268 37.3019 0.468268 35.3794 2.46727L28.4515 9.67395L37.2398 18.816C39.2822 18.0982 41.6239 18.5796 43.2521 20.2733C44.8878 21.9776 45.3473 24.4344 44.6405 26.566L53.1102 35.3766C55.1593 34.6422 57.5236 35.1176 59.1602 36.8226C61.4474 39.201 61.4474 43.056 59.1602 45.4361C56.8722 47.8162 53.1664 47.8162 50.8775 45.4361C49.1571 43.6447 48.732 41.016 49.6031 38.8112L41.7044 30.5945L41.7035 52.2172C42.2611 52.505 42.7876 52.8879 43.2521 53.3693C45.5393 55.7477 45.5393 59.6027 43.2521 61.9845C40.9641 64.3638 37.2566 64.3638 34.9719 61.9845C32.6847 59.6027 32.6847 55.7477 34.9719 53.3693C35.537 52.7823 36.1909 52.3384 36.8885 52.0401V30.216C36.1909 29.9195 35.5378 29.4782 34.9719 28.8868C33.2389 27.0867 32.8222 24.4414 33.7101 22.2279L25.0476 13.2149L2.17136 37.0102C0.24887 39.0109 0.24887 42.2527 2.17136 44.2517L35.5345 78.956C37.4553 80.955 40.5708 80.955 42.4942 78.956L75.7013 44.4131C77.623 42.4132 77.623 39.1696 75.7013 37.1706Z" fill="#FBD7DE" fill-opacity="0.8"/>
</svg>
