<svg width="77" height="81" viewBox="0 0 77 81" fill="none" xmlns="http://www.w3.org/2000/svg">
<path fill-rule="evenodd" clip-rule="evenodd" d="M38.3182 2.83093C17.7148 2.83093 1.00751 20.2074 1.00751 41.6434C1.00751 58.7917 11.6981 73.3403 26.5228 78.4724C28.3875 78.8316 29.0721 77.6304 29.0721 76.6053C29.0721 75.6797 29.0375 72.6223 29.0214 69.3792C18.6415 71.727 16.4513 64.7998 16.4513 64.7998C14.754 60.3137 12.3086 59.1208 12.3086 59.1208C8.92339 56.7119 12.5638 56.7614 12.5638 56.7614C16.3104 57.0352 18.2832 60.761 18.2832 60.761C21.6109 66.6946 27.0115 64.9791 29.1406 63.9874C29.4755 61.4789 30.4425 59.7667 31.5095 58.7975C23.2223 57.8161 14.5106 54.4881 14.5106 39.6162C14.5106 35.3788 15.9681 31.9165 18.3549 29.1984C17.9675 28.2208 16.6904 24.2733 18.7163 18.9271C18.7163 18.9271 21.8494 17.884 28.9794 22.9056C31.9556 22.0456 35.1474 21.6144 38.3182 21.5996C41.489 21.6144 44.6832 22.0456 47.665 22.9056C54.7863 17.884 57.9151 18.9271 57.9151 18.9271C59.946 24.2733 58.6683 28.2208 58.2809 29.1984C60.6732 31.9165 62.1208 35.3788 62.1208 39.6162C62.1208 54.5234 53.3924 57.8058 45.0842 58.7666C46.4225 59.9711 47.6149 62.3331 47.6149 65.9541C47.6149 71.1473 47.5717 75.3269 47.5717 76.6053C47.5717 77.6381 48.2433 78.8483 50.1345 78.4672C64.9512 73.3293 75.6282 58.7859 75.6282 41.6434C75.6282 20.2074 58.9234 2.83093 38.3182 2.83093ZM14.9816 58.12C14.8994 58.3129 14.6078 58.3707 14.3421 58.2383C14.0715 58.1117 13.9195 57.8488 14.0072 57.6554C14.0875 57.4568 14.3798 57.4015 14.6498 57.5345C14.921 57.6611 15.0755 57.9266 14.9816 58.12ZM16.8168 59.8236C16.6389 59.9952 16.291 59.9155 16.055 59.6442C15.811 59.3736 15.7653 59.0118 15.9457 58.8376C16.1292 58.666 16.4665 58.7464 16.7112 59.0169C16.9552 59.2907 17.0028 59.65 16.8168 59.8236ZM18.0759 62.0031C17.8473 62.1683 17.4735 62.0134 17.2424 61.6683C17.0138 61.3231 17.0138 60.9092 17.2474 60.7434C17.4791 60.5776 17.8473 60.7267 18.0815 61.0692C18.3094 61.4202 18.3094 61.8341 18.0759 62.0031ZM20.2052 64.5274C20.0007 64.762 19.5652 64.699 19.2463 64.3789C18.9201 64.0659 18.8293 63.6218 19.0344 63.3872C19.2414 63.152 19.6795 63.2182 20.0007 63.5357C20.3245 63.848 20.4233 64.2953 20.2052 64.5274ZM22.9572 65.3795C22.867 65.6835 22.4475 65.8217 22.0249 65.6925C21.6029 65.5595 21.3267 65.2034 21.412 64.8962C21.4997 64.5903 21.9211 64.4463 22.3468 64.5845C22.7682 64.7169 23.045 65.0704 22.9572 65.3795ZM26.0891 65.741C26.0996 66.0611 25.7412 66.3265 25.2976 66.3323C24.8515 66.3426 24.4907 66.0836 24.4858 65.7686C24.4858 65.4453 24.8361 65.1825 25.2822 65.1748C25.7258 65.1658 26.0891 65.4228 26.0891 65.741ZM29.1658 65.6183C29.2189 65.9307 28.9106 66.2514 28.4701 66.3369C28.037 66.4191 27.636 66.2263 27.581 65.9165C27.5273 65.5965 27.8411 65.2757 28.2736 65.1928C28.7148 65.1131 29.1096 65.3008 29.1658 65.6183Z" fill="#FBD7DE" fill-opacity="0.8"/>
</svg>
