<svg width="77" height="80" viewBox="0 0 77 80" fill="none" xmlns="http://www.w3.org/2000/svg">
<path fill-rule="evenodd" clip-rule="evenodd" d="M0.895447 8.93152C0.895447 4.51324 4.47718 0.931519 8.89546 0.931519H67.5162C71.9344 0.931519 75.5162 4.51323 75.5162 8.93151V70.5557C75.5162 74.974 71.9344 78.5557 67.5161 78.5557H8.89545C4.47717 78.5557 0.895447 74.974 0.895447 70.5557V8.93152ZM20.5159 65.7999C20.5159 65.7999 20.516 65.7999 20.516 65.7999L20.5161 65.7999C22.1691 69.4469 25.4253 72.4689 31.0347 72.4689C37.2462 72.4689 41.5036 69.0299 41.5036 61.4745V40.0748C41.5036 38.1383 39.9338 36.5685 37.9973 36.5685V36.5685C36.0609 36.5685 34.4911 38.1383 34.4911 40.0748V61.3713C34.4911 65.0184 33.0384 65.9561 30.7341 65.9561V65.9561C27.3616 65.9561 23.8093 63.7267 20.9553 65.5234L20.5161 65.7999L20.5161 65.7998C20.516 65.7998 20.5159 65.7998 20.5159 65.7999V65.7999ZM51.8219 62.8016C51.3456 62.1533 50.46 61.918 49.7708 62.3331L45.3126 65.0183C45.3126 65.0183 45.3126 65.0183 45.3126 65.0183V65.0183C45.3126 65.0183 45.3127 65.0183 45.3127 65.0183C47.366 69.2391 51.5737 72.4695 58.0854 72.4695C64.7472 72.4695 69.706 68.8745 69.706 62.3087C69.706 56.2125 66.3499 53.5033 60.3891 50.8457L58.6361 50.0642C55.631 48.7093 54.3286 47.8233 54.3286 45.6348C54.3286 43.8635 55.631 42.5088 57.6848 42.5088C58.5097 42.5088 59.2157 42.6589 59.8448 42.992C61.5441 43.8917 63.5766 44.7102 65.1755 43.6421V43.6421C66.5777 42.7054 67.0807 40.8048 65.9686 39.5371C63.853 37.1255 61.1464 36.1515 57.6846 36.1515C51.4231 36.1515 47.416 40.3201 47.416 45.7913C47.416 51.7315 50.7722 54.5452 55.8316 56.7853L57.5842 57.5675C60.7901 59.026 62.6934 59.9119 62.6934 62.413C62.6934 64.4972 60.8405 66.0084 57.9349 66.0084C55.0587 66.0084 53.2232 64.7093 51.8219 62.8016Z" fill="#FBD7DE" fill-opacity="0.8"/>
</svg>
