<svg width="66" height="68" viewBox="0 0 66 68" fill="none" xmlns="http://www.w3.org/2000/svg">
<path fill-rule="evenodd" clip-rule="evenodd" d="M17.7392 8.69743C17.7392 8.69743 16.7435 1.5044 32.6885 1.50439C49.3518 1.50439 48.0645 10.1767 48.0645 10.1767V24.5073C48.0645 33.1743 39.5855 33.0317 39.5855 33.0317H24.494C15.4441 33.0317 15.7306 42.2957 15.7306 42.2957V50.062H10.4157C10.4157 50.062 1.51011 50.6555 1.51011 33.9193C1.51011 17.183 11.7133 18.3868 11.7133 18.3868H32.973V16.1493H17.757L17.7392 8.69743ZM27.0359 9.3631C27.0359 7.7883 25.8123 6.51548 24.2985 6.51548C22.7846 6.51548 21.561 7.7883 21.561 9.3631C21.561 10.9379 22.7846 12.2107 24.2985 12.2107C25.8123 12.2107 27.0359 10.9379 27.0359 9.3631Z" fill="#F0DBDF" fill-opacity="0.6"/>
<path fill-rule="evenodd" clip-rule="evenodd" d="M48.0907 59.3089C48.0907 59.3089 49.0864 66.5019 33.1414 66.5019C16.4781 66.5019 17.7655 57.8296 17.7655 57.8296V43.499C17.7655 34.8321 26.2445 34.9746 26.2445 34.9746H41.336C50.3858 34.9746 50.0993 25.7106 50.0993 25.7106V17.9444H55.4142C55.4142 17.9444 64.3198 17.3509 64.3198 34.0871C64.3198 50.8233 54.1166 49.6196 54.1166 49.6196H32.857V51.857H48.0729L48.0907 59.3089ZM38.794 58.6432C38.794 60.218 40.0176 61.4909 41.5315 61.4909C43.0454 61.4909 44.2689 60.218 44.2689 58.6432C44.2689 57.0684 43.0454 55.7956 41.5315 55.7956C40.0176 55.7956 38.794 57.0684 38.794 58.6432Z" fill="#F0DBDF" fill-opacity="0.6"/>
</svg>
